# xmcd
#
# Track frame offsets:
#	150
#	14433
#	29504
#	47142
#	67328
#	87071
#	105440
#	121946
#	137772
#	148426
#	160647
#	182017
#	201521
#
# Disc length: 2886 seconds
# Revision: 0
# Processed by: cddbd v1.5.2PL0 Copyright (c) Steve Scherf et al.
# Submitted via: dBpowerAMP V12.0
#
DISCID=bd0b440d
DTITLE=Cliff Compton and Mountaintop - Under the Bridge
DYEAR=2015
DGENRE=Country
TTITLE0=Can't Do Wrong
TTITLE1=In Your Presence
TTITLE2=In Triumph
TTITLE3=Amber Poison
TTITLE4=The Ballad of Charlie Goodman
TTITLE5=Moment of Peace
TTITLE6=It Sure Feels Good to be Living Right
TTITLE7=Samson and Delilah
TTITLE8=Red Delicious
TTITLE9=Under the Bridge
TTITLE10=Wilted Wild Flowers
TTITLE11=Poor Boy
TTITLE12=Since I Laid My Burdens Down
EXTD=
EXTT0=
EXTT1=
EXTT2=
EXTT3=
EXTT4=
EXTT5=
EXTT6=
EXTT7=
EXTT8=
EXTT9=
EXTT10=
EXTT11=
EXTT12=
PLAYORDER=
